# xmcd CD database file
#
# Track frame offsets:
#	150
#	17035
#	35982
#	53432
#	68852
#	83904
#	106782
#	123772
#	141342
#	157192
#	176552
#	192825
#	204630
#	221630
#	239780
#	256417
#	273515
#	290825
#
# Disc length: 4157 seconds
#
# Revision: 4
# Processed by: cddbd v1.5.2PL0 Copyright (c) Steve Scherf et al.
# Submitted via: CDex 1.51
#
DISCID=19103b12
DTITLE=Kenny Rogers - After Dark
DYEAR=1999
DGENRE=Country
TTITLE0=Ain't No Sunshine
TTITLE1=The Kind Of Fool Love Makes
TTITLE2=Let It Be Me
TTITLE3=You Don't Know Me
TTITLE4=How Sweet It Is (To Be Loved By You)
TTITLE5=I Will Remember You
TTITLE6=Buy Me A Rose
TTITLE7=Three Times A Lady
TTITLE8=Share Your Love With Me
TTITLE9=I Can't Make You Love Me
TTITLE10=I Don't Need You
TTITLE11=This Masquerade
TTITLE12=Since I Fell For You
TTITLE13=Don't Fall In Love With A Dreamer
TTITLE14=Loving Arms
TTITLE15=Love Don't Live Here Anymore
TTITLE16=You Looked So Beautiful
TTITLE17=Small Dark Cloud
EXTD=YEAR: 1999
EXTT0=
EXTT1=
EXTT2=
EXTT3=
EXTT4=
EXTT5=
EXTT6=
EXTT7=
EXTT8=
EXTT9=
EXTT10=
EXTT11=
EXTT12=
EXTT13=
EXTT14=
EXTT15=
EXTT16=
EXTT17=
PLAYORDER=
